<svg width="301" height="301" viewBox="0 0 301 301" fill="none" xmlns="http://www.w3.org/2000/svg">
<path d="M149.06 300.132C111.494 300.165 77.5562 287.262 48.1748 261.771C52.3645 247.26 56.775 231.623 61.6164 214.118C104.747 236.014 146.359 252.821 188.674 265.444C205.24 270.385 219.09 273.479 232.261 275.178C232.287 275.181 232.313 275.186 232.339 275.189C229.935 276.785 227.399 278.351 224.716 279.897C204.222 291.71 182.284 298.409 159.51 299.802C156.007 300.019 152.491 300.129 149.06 300.132Z" fill="url(#paint0_linear_1_75)"/>
<path d="M243.746 257.14C230.91 256.811 218.536 254.022 207.075 251.054C178.986 243.78 149.256 233.234 113.51 217.864C98.1357 211.252 82.4051 203.828 66.7179 195.782C76.2689 162.25 85.7861 129.461 96.8191 96.8691C130.298 85.6972 163.752 76.0984 195.041 67.3863C217.549 112.281 234.496 155.316 246.822 198.86C251.413 215.072 253.942 227.639 255.021 239.605C255.485 244.739 255.409 248.859 254.783 252.577C254.244 255.78 253.939 256.088 250.706 256.685C248.537 257.086 246.209 257.116 243.746 257.14Z" fill="url(#paint1_linear_1_75)"/>
<path d="M33.3769 246.425C16.3175 226.115 5.20703 202.663 0.310571 176.591C0.256836 176.305 0.204304 176.017 0.153089 175.73C10.1466 184.576 21.3645 191.374 32.3277 198.018L35.3526 199.853C38.4942 201.763 41.6543 203.517 44.7528 205.203C41.0389 218.515 37.2249 232.335 33.3769 246.425Z" fill="url(#paint2_linear_1_75)"/>
<path d="M273.396 234.831C273.33 234.227 273.258 233.627 273.182 233.03C271.396 218.998 268.022 203.973 262.561 185.746C250.109 144.185 233.566 102.69 213.363 62.334C228.963 58.0654 245.057 53.6005 262.363 48.7399C281.944 71.2784 294.004 96.9651 298.254 125.147C304.243 164.862 295.88 201.74 273.396 234.831Z" fill="url(#paint3_linear_1_75)"/>
<path d="M49.901 186.621C37.9027 179.819 24.6594 171.825 12.9396 162.045C9.08752 158.83 6.27855 155.971 4.09993 153.048C1.30629 149.297 1.26466 147.944 3.8245 143.994C5.9337 140.74 8.95471 137.755 13.6194 134.314C25.4607 125.58 39.1457 119.33 51.0435 114.157C58.203 111.044 65.8033 108.009 74.4711 104.811C74.4134 104.991 74.3561 105.172 74.2987 105.353C71.5352 114.041 68.678 123.026 65.938 131.88C60.1468 150.592 54.8213 169.155 49.901 186.621Z" fill="url(#paint4_linear_1_75)"/>
<path d="M0.335158 120.979C10.5471 64.261 54.5377 16.8602 110.614 2.51916C114.224 1.59748 117.836 0.807812 121.435 0.155795C119.468 2.5901 117.721 5.06353 116.126 7.44413C105.677 23.0342 98.3339 40.2594 92.2717 55.1807C88.277 65.0128 85.0035 73.769 82.264 81.9498C82.2293 82.0535 82.1988 82.1344 82.1736 82.1965C82.1144 82.2213 82.0378 82.2506 81.9413 82.2841C64.9661 88.1492 44.9736 95.4866 25.4028 105.441C17.0238 109.703 8.31463 114.521 0.335158 120.979Z" fill="url(#paint5_linear_1_75)"/>
<path d="M104.832 74.538C105.273 73.3623 105.714 72.199 106.161 71.0413C113.106 53.0513 119.426 38.1871 127.695 24.118C132.259 16.3542 136.486 10.2185 142.277 5.51962C143.044 4.89536 143.952 4.2766 144.974 3.67458C146.312 2.8869 147.525 2.48978 148.581 2.48886C149.754 2.48784 150.978 2.98676 152.323 4.0193C156.426 7.17302 160.234 11.1556 164.668 16.9383C172.926 27.7055 179.971 39.6109 186.048 50.4753C160.182 57.7133 132.841 65.5082 105.651 74.2732C105.378 74.3614 105.105 74.4493 104.832 74.538Z" fill="url(#paint6_linear_1_75)"/>
<path d="M204.573 45.5288C199.175 35.5647 191.96 22.8367 183.215 10.6777C180.598 7.03955 177.955 3.46882 175.075 0.108974C201.922 4.65297 225.668 15.8261 247.062 33.9507C244.104 34.7459 241.21 35.5266 238.318 36.3142C231.426 38.1899 224.537 40.0729 217.647 41.957L204.573 45.5288Z" fill="url(#paint7_linear_1_75)"/>
<defs>
<linearGradient id="paint0_linear_1_75" x1="150" y1="0.13085" x2="150.262" y2="300.131" gradientUnits="userSpaceOnUse">
<stop stop-color="#FA00FF"/>
<stop offset="1" stop-color="#8262FF"/>
</linearGradient>
<linearGradient id="paint1_linear_1_75" x1="150" y1="0.13085" x2="150.262" y2="300.131" gradientUnits="userSpaceOnUse">
<stop stop-color="#FA00FF"/>
<stop offset="1" stop-color="#8262FF"/>
</linearGradient>
<linearGradient id="paint2_linear_1_75" x1="150" y1="0.13085" x2="150.262" y2="300.131" gradientUnits="userSpaceOnUse">
<stop stop-color="#FA00FF"/>
<stop offset="1" stop-color="#8262FF"/>
</linearGradient>
<linearGradient id="paint3_linear_1_75" x1="150" y1="0.13085" x2="150.262" y2="300.131" gradientUnits="userSpaceOnUse">
<stop stop-color="#FA00FF"/>
<stop offset="1" stop-color="#8262FF"/>
</linearGradient>
<linearGradient id="paint4_linear_1_75" x1="150" y1="0.13085" x2="150.262" y2="300.131" gradientUnits="userSpaceOnUse">
<stop stop-color="#FA00FF"/>
<stop offset="1" stop-color="#8262FF"/>
</linearGradient>
<linearGradient id="paint5_linear_1_75" x1="150" y1="0.13085" x2="150.262" y2="300.131" gradientUnits="userSpaceOnUse">
<stop stop-color="#FA00FF"/>
<stop offset="1" stop-color="#8262FF"/>
</linearGradient>
<linearGradient id="paint6_linear_1_75" x1="150" y1="0.13085" x2="150.262" y2="300.131" gradientUnits="userSpaceOnUse">
<stop stop-color="#FA00FF"/>
<stop offset="1" stop-color="#8262FF"/>
</linearGradient>
<linearGradient id="paint7_linear_1_75" x1="150" y1="0.13085" x2="150.262" y2="300.131" gradientUnits="userSpaceOnUse">
<stop stop-color="#FA00FF"/>
<stop offset="1" stop-color="#8262FF"/>
</linearGradient>
</defs>
</svg>
